<?xml version="1.0" encoding="utf-8"?>
<!-- Generator: Adobe Illustrator 15.0.0, SVG Export Plug-In  -->
<!DOCTYPE svg PUBLIC "-//W3C//DTD SVG 1.1//EN" "http://www.w3.org/Graphics/SVG/1.1/DTD/svg11.dtd" [
	<!ENTITY ns_flows "http://ns.adobe.com/Flows/1.0/">
]>
<svg version="1.1"
	 xmlns="http://www.w3.org/2000/svg" xmlns:xlink="http://www.w3.org/1999/xlink" xmlns:a="http://ns.adobe.com/AdobeSVGViewerExtensions/3.0/"
	 x="0px" y="0px" width="74px" height="20px" viewBox="0 0 74 20" overflow="visible" enable-background="new 0 0 74 20"
	 xml:space="preserve">
<defs>
</defs>
<path fill="#FFFFFF" d="M14.244,8.561H8.029c-0.16,0-0.291,0.13-0.291,0.291v3.039c0,0.16,0.13,0.291,0.291,0.291h2.424v3.774
	c0,0-0.544,0.186-2.049,0.186c-1.775,0-4.256-0.648-4.256-6.103c0-5.455,2.583-6.173,5.008-6.173c2.099,0,3.003,0.37,3.579,0.547
	c0.181,0.056,0.348-0.125,0.348-0.285l0.693-2.936c0-0.075-0.025-0.166-0.111-0.227C13.431,0.798,12.006,0,8.404,0
	C4.255,0,0,1.765,0,10.25C0,18.735,4.873,20,8.978,20c3.4,0,5.462-1.452,5.462-1.452c0.085-0.047,0.094-0.166,0.094-0.221V8.851
	C14.534,8.69,14.404,8.561,14.244,8.561z"/>
<path fill="#FFFFFF" d="M46.271,1.017c0-0.162-0.128-0.292-0.288-0.292h-3.499c-0.16,0-0.29,0.131-0.29,0.292
	c0,0,0.001,6.762,0.001,6.762h-5.455V1.017c0-0.162-0.129-0.292-0.289-0.292h-3.499c-0.16,0-0.289,0.131-0.289,0.292v18.31
	c0,0.162,0.129,0.293,0.289,0.293h3.499c0.16,0,0.289-0.131,0.289-0.293v-7.832h5.455l-0.01,7.832c0,0.162,0.13,0.293,0.29,0.293
	h3.507c0.161,0,0.289-0.131,0.289-0.293V1.017z"/>
<g>
	<g>
		<ellipse fill="#FFFFFF" cx="18.591" cy="3.419" rx="2.256" ry="2.278"/>
		<path fill="#FFFFFF" d="M20.597,15.465c0-0.469,0-8.452,0-8.452c0-0.161-0.13-0.292-0.29-0.292h-3.488
			c-0.16,0-0.303,0.165-0.303,0.325c0,0,0,10.17,0,12.11c0,0.355,0.222,0.461,0.509,0.461c0,0,1.489,0,3.143,0
			c0.345,0,0.43-0.169,0.43-0.467C20.597,18.501,20.597,15.959,20.597,15.465z"/>
	</g>
</g>
<path fill="#FFFFFF" d="M59.57,6.749h-3.473c-0.159,0-0.289,0.131-0.289,0.293v8.978c0,0-0.882,0.646-2.134,0.646
	s-1.585-0.568-1.585-1.794c0-1.228,0-7.83,0-7.83c0-0.162-0.129-0.293-0.288-0.293h-3.524c-0.159,0-0.289,0.131-0.289,0.293
	c0,0,0,4.781,0,8.422s2.029,4.532,4.821,4.532c2.29,0,4.137-1.266,4.137-1.266s0.088,0.667,0.128,0.746s0.144,0.158,0.256,0.158
	l2.241-0.01c0.159,0,0.29-0.131,0.29-0.292L59.86,7.042C59.86,6.88,59.73,6.749,59.57,6.749z"/>
<path fill="#FFFFFF" d="M69.061,6.337c-1.972,0-3.313,0.88-3.313,0.88v-6.2c0-0.162-0.129-0.292-0.289-0.292h-3.509
	c-0.159,0-0.289,0.131-0.289,0.292v18.31c0,0.162,0.13,0.293,0.289,0.293c0.001,0,2.435,0,2.435,0c0.11,0,0.193-0.057,0.255-0.155
	c0.06-0.099,0.147-0.844,0.147-0.844s1.435,1.359,4.151,1.359c3.188,0,5.018-1.617,5.018-7.262
	C73.955,7.075,71.034,6.337,69.061,6.337z M67.691,16.654c-1.205-0.037-2.021-0.584-2.021-0.584v-5.798c0,0,0.806-0.494,1.795-0.582
	c1.25-0.112,2.455,0.266,2.455,3.249C69.92,16.084,69.376,16.705,67.691,16.654z"/>
<path fill="#FFFFFF" d="M30.654,6.719h-2.625c0,0-0.004-3.467-0.004-3.467c0-0.131-0.067-0.197-0.219-0.197h-3.577
	c-0.139,0-0.213,0.062-0.213,0.195v3.583c0,0-1.792,0.433-1.914,0.468c-0.121,0.035-0.209,0.146-0.209,0.279v2.251
	c0,0.162,0.129,0.292,0.29,0.292h1.834c0,0,0,2.355,0,5.418c0,4.023,2.822,4.419,4.727,4.419c0.87,0,1.911-0.28,2.083-0.344
	c0.104-0.038,0.164-0.146,0.164-0.262l0.003-2.478c0-0.161-0.136-0.292-0.29-0.292c-0.153,0-0.544,0.062-0.947,0.062
	c-1.289,0-1.726-0.599-1.726-1.375c0-0.775,0-5.148,0-5.148h2.625c0.16,0,0.29-0.13,0.29-0.292v-2.82
	C30.943,6.85,30.814,6.719,30.654,6.719z"/>
</svg>
