<?xml version="1.0" encoding="utf-8"?>
<!-- Generator: Adobe Illustrator 15.0.0, SVG Export Plug-In  -->
<!DOCTYPE svg PUBLIC "-//W3C//DTD SVG 1.1//EN" "http://www.w3.org/Graphics/SVG/1.1/DTD/svg11.dtd" [
	<!ENTITY ns_flows "http://ns.adobe.com/Flows/1.0/">
]>
<svg version="1.1"
	 xmlns="http://www.w3.org/2000/svg" xmlns:xlink="http://www.w3.org/1999/xlink" xmlns:a="http://ns.adobe.com/AdobeSVGViewerExtensions/3.0/"
	 x="0px" y="0px" width="39px" height="39px" viewBox="0 0 39 39" overflow="visible" enable-background="new 0 0 39 39"
	 xml:space="preserve">
<defs>
</defs>
<circle fill-rule="evenodd" clip-rule="evenodd" fill="#79BDAB" cx="19.541" cy="19.541" r="19.541"/>
<g>
	<defs>
		<path id="SVGID_5_" d="M19.541,1.026c-10.237,0-18.564,8.329-18.564,18.565c0,10.236,8.327,18.565,18.564,18.565
			s18.564-8.329,18.564-18.565C38.105,9.354,29.778,1.026,19.541,1.026z"/>
	</defs>
	<clipPath id="SVGID_6_">
		<use xlink:href="#SVGID_5_"  overflow="visible"/>
	</clipPath>
	<path clip-path="url(#SVGID_6_)" fill="#FCF7C2" d="M15.644,37.45C10.27,37.357,3.992,35.5,3.993,30.561
		c0.003-4.811,4.27-7.899,11.229-8.221c-0.375-0.907-0.514-1.878-0.421-2.901c-0.063,0.001-0.127,0.001-0.189,0.001
		c-2.426,0-4.46-0.728-5.887-2.103c-1.537-1.482-2.316-3.606-2.316-6.311c0.001-5.912,4.274-8.178,7.935-8.323
		c0.87-0.035,2.395-0.051,4.533-0.051c3.641,0,7.873,0.05,7.916,0.051l1.987,0.024l-1.403,1.407c-1.148,1.146-2.55,1.5-3.887,1.597
		c0.979,1.131,1.745,2.667,1.745,4.49c0,3.914-1.966,5.524-3.404,6.7c-1.039,0.852-1.58,1.336-1.546,2.215
		c0.034,0.911,1.053,1.672,2.229,2.552c1.886,1.411,4.469,3.341,4.272,7.244c-0.316,6.25-6.73,8.519-10.965,8.519L15.644,37.45z
		 M16.253,25.197c-3.308,0-6.686,1.279-6.768,4.136c-0.027,1.007,0.556,1.825,1.051,2.334c1.26,1.296,3.497,2.202,5.442,2.202
		l0.11-0.001c3.005-0.054,6.069-1.903,6.069-3.664C22.158,27.911,18.957,25.197,16.253,25.197z M14.929,5.552
		c-0.395,0-0.787,0.089-1.168,0.265c-1.993,0.922-2.54,4.212-1.222,7.335c0.792,1.877,2.546,3.238,4.17,3.238
		c0.474,0,0.939-0.111,1.381-0.329c2.46-1.212,2.023-4.556,0.902-7.053C18.046,6.909,16.453,5.552,14.929,5.552z"/>
	<polygon clip-path="url(#SVGID_6_)" fill="#FCF7C2" points="30.383,25.435 30.383,21.14 26.091,21.14 26.091,17.107 30.383,17.107 
		30.383,12.843 34.416,12.843 34.416,17.107 38.714,17.107 38.714,21.14 34.416,21.14 34.416,25.435 	"/>
</g>
</svg>
