<?xml version="1.0" encoding="utf-8"?>
<!-- Generator: Adobe Illustrator 15.0.0, SVG Export Plug-In  -->
<!DOCTYPE svg PUBLIC "-//W3C//DTD SVG 1.1//EN" "http://www.w3.org/Graphics/SVG/1.1/DTD/svg11.dtd" [
	<!ENTITY ns_flows "http://ns.adobe.com/Flows/1.0/">
]>
<svg version="1.1"
	 xmlns="http://www.w3.org/2000/svg" xmlns:xlink="http://www.w3.org/1999/xlink" xmlns:a="http://ns.adobe.com/AdobeSVGViewerExtensions/3.0/"
	 x="0px" y="0px" width="39px" height="39px" viewBox="0 -0.001 39 39" overflow="visible" enable-background="new 0 -0.001 39 39"
	 xml:space="preserve">
<defs>
</defs>
<circle fill-rule="evenodd" clip-rule="evenodd" fill="#79BDAB" cx="19.541" cy="19.542" r="19.541"/>
<g>
	<defs>
		<path id="SVGID_5_" d="M19.541,0.977c-10.237,0-18.564,8.328-18.564,18.564c0,10.236,8.327,18.564,18.564,18.564
			s18.564-8.328,18.564-18.564C38.105,9.305,29.778,0.977,19.541,0.977z"/>
	</defs>
	<clipPath id="SVGID_6_">
		<use xlink:href="#SVGID_5_"  overflow="visible"/>
	</clipPath>
	<g clip-path="url(#SVGID_6_)">
		<path fill="#FCF7C2" d="M12.532,36.503c-3.971,0-7.666-1.164-10.779-3.159c0.551,0.065,1.11,0.099,1.679,0.099
			c3.293,0,6.324-1.124,8.73-3.011c-3.074-0.056-5.673-2.088-6.566-4.883c0.429,0.082,0.868,0.126,1.322,0.126
			c0.642,0,1.263-0.086,1.852-0.247c-3.216-0.646-5.64-3.488-5.64-6.895c0-0.03,0-0.06,0.002-0.089
			c0.946,0.527,2.032,0.843,3.184,0.88c-1.888-1.262-3.128-3.413-3.128-5.854c0-1.288,0.346-2.496,0.952-3.535
			c3.467,4.254,8.649,7.054,14.492,7.348c-0.119-0.515-0.181-1.051-0.181-1.603c0-3.883,3.147-7.031,7.031-7.031
			c2.022,0,3.85,0.854,5.133,2.22c1.601-0.315,3.104-0.9,4.465-1.706c-0.525,1.642-1.64,3.02-3.092,3.89
			c1.423-0.169,2.779-0.548,4.038-1.107c-0.942,1.41-2.134,2.648-3.508,3.64c0.013,0.302,0.02,0.605,0.02,0.91
			C32.538,25.79,25.467,36.503,12.532,36.503"/>
	</g>
</g>
</svg>
