<svg xmlns="http://www.w3.org/2000/svg" viewBox="0 0 296.54 29.11"><title>name</title><path d="M14,0.81a13.87,13.87,0,0,0-3,.37A15.21,15.21,0,0,0,8.26,2.35,14.94,14.94,0,0,0,5.68,3.91a14.08,14.08,0,0,0-2,2.27A12.69,12.69,0,0,0,2.07,8.65,12.57,12.57,0,0,0,1,11.42a13.63,13.63,0,0,0-.36,3,12.1,12.1,0,0,0,.32,3.3,11.66,11.66,0,0,0,1.57,2.91,12.24,12.24,0,0,0,2,2.57A10.89,10.89,0,0,0,7.31,25a16.39,16.39,0,0,0,3.14.85,15.62,15.62,0,0,0,3.2.53,16.13,16.13,0,0,0,3.26-.2A18.2,18.2,0,0,0,20,25a20.4,20.4,0,0,0,3-1.19,25.33,25.33,0,0,0,2.59-2c1-.79-1.16-3.41-1.79-2.95-1,.74-2,1.3-2.93,1.89a10.87,10.87,0,0,1-3.23,1.26,15.06,15.06,0,0,1-3.43.59,13,13,0,0,1-3.13-.75,12.23,12.23,0,0,1-3-1,8.58,8.58,0,0,1-2.46-2.08,6.39,6.39,0,0,1-1.08-3,7.76,7.76,0,0,1,.08-3.18,11.81,11.81,0,0,1,1.21-2.48A8.82,8.82,0,0,1,7.3,7.88,7.86,7.86,0,0,1,9.4,6.14a9.33,9.33,0,0,1,2.61-1,10.43,10.43,0,0,1,2.79.1,21,21,0,0,1,2.7.35,8.76,8.76,0,0,1,2.38,1.28c0.73,0.43,1.59.62,2.45,1.18,0.46,0.3,1.13-.1,1.78-0.79s1.13-1.5.92-1.83a6.93,6.93,0,0,0-2.27-2,19.38,19.38,0,0,0-2.67-1.54,19.23,19.23,0,0,0-3-.64A12.48,12.48,0,0,0,14,.81Z" style="fill:none;stroke:#fff;stroke-miterlimit:10;stroke-width:1.25px"/><path d="M4.32,22.86a12.18,12.18,0,0,0,2.22,2.39,14.11,14.11,0,0,0,2.91,1.48,16,16,0,0,0,3,1,15,15,0,0,0,3.17.4,15.57,15.57,0,0,0,3.21-.17A17.56,17.56,0,0,0,22,27.22a21.46,21.46,0,0,0,2.76-1.71,23.84,23.84,0,0,0,2.85-1.58c1-.79-1.42-3.75-2-3.29" style="fill:none;stroke:#fff;stroke-miterlimit:10;stroke-width:1.25px"/><path d="M7.48,20.36a6.12,6.12,0,0,1-1-2.78,7.87,7.87,0,0,1,.22-2.95A13.46,13.46,0,0,1,7.56,12a9.11,9.11,0,0,1,1.6-2.25A8.28,8.28,0,0,1,11.31,8,8.72,8.72,0,0,1,14,7.38a12.12,12.12,0,0,1,2.76-.15,17.34,17.34,0,0,1,2.65.54A10.31,10.31,0,0,1,22,8.64c0.73,0.43,1.25,1.17,2.1,1.73,0.46,0.3,1.23-.49,1.89-1.17s1.36-1.5,1.15-1.83a6.81,6.81,0,0,0-2.1-1.86" style="fill:none;stroke:#fff;stroke-miterlimit:10;stroke-width:1.25px"/><path d="M36,2.08s0.06,0.21.06,0.21c0,1.5.14,1.5,0.14,3S36,6.79,36,8.29s-0.18,1.5-.18,3,0.27,1.5.27,3,0.11,1.5.11,3-0.08,1.5-.08,3,0,1.5,0,3,0,1.5,0,3L36,26.36c2,0,2-.11,4-0.11l0.13,0c0-1.56,0-1.56,0-3.13s0-1.57,0-3.13-0.25-1.57-.25-3.13a0.54,0.54,0,0,1,.65-0.45c1.67,0,1.67-.12,3.35-0.12s1.67-.2,3.35-0.2h3.35l3.35,0a1.43,1.43,0,0,1,.06.16C54.06,18,54,18,54,19.62S54,21.28,54,22.95s0.2,1.66.2,3.33H54c2,0,2,0,4,0l-0.16,0c0-1.5,0-1.5,0-3s0.12-1.5.12-3,0.24-1.5.24-3-0.36-1.5-.36-3,0.09-1.5.09-3,0-1.5,0-3,0.2-1.5.2-3-0.14-1.5-.14-3L58,2.35c-2,0-2-.15-4-0.15L54.1,2.3c0,1.5,0,1.5,0,3s0.09,1.5.09,3-0.34,1.5-.34,3L54,11.43c-1.4,0-1.4,0-2.79,0s-1.4-.05-2.79-0.05-1.4.14-2.79,0.14-1.4-.44-2.8-0.44-1.4.45-2.8,0.45c0,0-.06-0.22-0.06-0.22,0-1.5-.1-1.5-0.1-3s0.22-1.5.22-3-0.2-1.5-.2-3L40,2.17A26.24,26.24,0,0,0,36,2.08Z" style="fill:none;stroke:#fff;stroke-linejoin:round;stroke-width:1.25px"/><path d="M42.06,11.28c0-1.75,0-1.75,0-3.49S41.94,6,41.94,4.3L42,4.22c-1,0-1,.08-2,0.08" style="fill:none;stroke:#fff;stroke-miterlimit:10;stroke-width:1.25px"/><path d="M55.94,26.29c0,1,.25,1,0.25,2l-0.18,0c2,0,2-.22,4-0.22,0,0,0,.19,0,0.18,0-1.5.19-1.5,0.19-3s-0.3-1.5-.3-3,0.06-1.5.06-3-0.16-1.5-.16-3,0.33-1.5.33-3-0.26-1.5-.26-3S60,8.8,60,7.3s0.17-1.5.17-3H60c-1,0-1,.15-2,0.15" style="fill:none;stroke:#fff;stroke-miterlimit:10;stroke-width:1.25px"/><path d="M37.92,26.29c0,1-.07,1-0.07,2L38,28.19c2,0,2,.12,4,0.12l0.13,0c0-1.66-.27-1.66-0.27-3.32s0-1.66,0-3.33S42,20,42,18.3a0.33,0.33,0,0,1,0-.08c1.5,0,1.5.06,3,.06s1.5-.14,3-0.14,1.5,0.09,3,.09,1.5,0,3,0" style="fill:none;stroke:#fff;stroke-miterlimit:10;stroke-width:1.25px"/><path d="M67.23,26L67.4,26.2c0.64-1.32.4-1.44,1-2.76s0.81-1.24,1.45-2.56,0.5-1.39,1.14-2.71,0.84-1.23,1.48-2.55,0.37-1.46,1-2.78,0.63-1.33,1.28-2.65S75.74,9,76.38,7.68s0.72-1.29,1.36-2.62,0.29-1.5.93-2.82l0.14-.11c1.66,0,1.66.28,3.31,0.28L82,2.38c0.62,1.33,1,1.16,1.61,2.49s0.26,1.5.88,2.83,0.84,1.23,1.45,2.56l1.24,2.66c0.62,1.33.59,1.35,1.21,2.68s0.71,1.29,1.33,2.62S90.4,19.51,91,20.84s0.46,1.41,1.08,2.75,0.35,1.46,1,2.8l0.23-.28c-2.07,0-2.07.09-4.15,0.09l0.06,0.05c-0.55-1.33-.86-1.2-1.42-2.53s-0.26-1.45-.81-2.78-0.57-1.32-1.12-2.66l-0.06-.08c-1.61,0-1.61-.1-3.21-0.1s-1.61.08-3.22,0.08S77.75,18,76.14,18c0,0,0,.25,0,0.25-0.72,1.33-.58,1.4-1.3,2.73s-0.66,1.37-1.38,2.7S72.66,25,71.94,26.35l-0.16.14c-1.14,0-1.15,0-2.29,0S68.37,26.05,67.23,26Z" style="fill:none;stroke:#fff;stroke-miterlimit:10;stroke-width:1.25px"/><path d="M77.14,14.28a0,0,0,0,0,0,0c1.5,0,1.5,0,3,0s1.5,0,3,0a0.07,0.07,0,0,1,0,0c-0.72-1.58-.7-1.59-1.42-3.17S81,9.52,80.3,7.95c0,0,0,0,0,0-0.78,1.58-.81,1.56-1.59,3.14Z" style="fill:none;stroke:#fff;stroke-miterlimit:10;stroke-width:1.25px"/><path d="M86,20.18c-1.71,0-1.71.17-3.41,0.17s-1.71-.12-3.41-0.12l0.1,0.13c-0.72,1.33-.92,1.22-1.64,2.55s-0.64,1.37-1.36,2.7-0.68,1.35-1.4,2.68c0,0,0,.15,0,0.15-1.39,0-1.38-.31-2.77-0.35s-1.39.09-2.79,0H69.3c0.44-.91.31-1,0.76-1.89" style="fill:none;stroke:#fff;stroke-linecap:round;stroke-miterlimit:10;stroke-width:1.25px"/><path d="M83.06,4.09c1,0,1,0,2.06,0L85.34,4.2c0.62,1.33.36,1.45,1,2.79s0.87,1.22,1.49,2.55,0.28,1.48.9,2.81,0.74,1.28,1.36,2.61,0.54,1.37,1.16,2.7,0.75,1.27,1.37,2.6S93,21.67,93.66,23s1,1.18,1.57,2.52,0.26,1.5.89,2.84l0.17-.2c-2.07,0-2.07.1-4.15,0.1l0.09,0c-0.42-1-.51-1-0.92-2" style="fill:none;stroke:#fff;stroke-miterlimit:10;stroke-width:1.25px"/><path d="M81.66,11c-0.8,1.62-.81,1.62-1.62,3.24" style="fill:none;stroke:#fff;stroke-miterlimit:10;stroke-width:1.25px"/><path d="M67.22,26.12" style="fill:none;stroke:#fff;stroke-linecap:round;stroke-miterlimit:10;stroke-width:1.25px"/><path d="M104.9,1.79c-0.47,1.45-.17,1.52-0.17,3s0.35,1.53.35,3.05-0.29,1.52-.29,3,0,1.53,0,3.05,0.3,1.53.3,3.05-0.1,1.53-.1,3.05-0.11,1.53-.11,3.06-0.23,1.53-.23,3.06a0.6,0.6,0,0,0,.29.13c1.92,0,1.92.18,3.84,0.18a0.66,0.66,0,0,0,0-.31c0-1.64,0-1.64,0-3.28s0.16-1.64.16-3.28-0.23-1.64-.23-3.28c0,0,.1,0,0.14,0,1.39,0,1.39.14,2.78,0.14s1.39,0,2.78,0,1.39-.4,2.78-0.4a0.85,0.85,0,0,1,.3.16c0.66,1.23.45,1.34,1.11,2.58s0.88,1.12,1.54,2.35,0.47,1.34,1.13,2.57,0.74,1.19,1.4,2.43a1.52,1.52,0,0,0,.05.36c2.23,0,2.23-.43,4.47-0.43,0,0,.05.15,0,0.11-0.71-1.28-.91-1.17-1.62-2.45s-0.57-1.36-1.28-2.64-0.66-1.31-1.37-2.59-0.55-1.37-1.25-2.65c0,0-.15,0-0.1,0a3.64,3.64,0,0,0,2.93-1.22,5.7,5.7,0,0,0,1.79-2.63,9.1,9.1,0,0,0,.15-3.16A14.06,14.06,0,0,0,126.28,6a5.37,5.37,0,0,0-1.4-2.48,6.31,6.31,0,0,0-2.36-1.7,12.91,12.91,0,0,0-2.84-.9c-0.87-.13-1.88,0-3-0.07-0.9,0-1.89-.06-3,0-0.92,0-1.91,0-3,.11s-1.87.51-2.91,0.64S105.93,1.64,104.9,1.79Z" style="fill:none;stroke:#fff;stroke-miterlimit:10;stroke-width:1.25px"/><path d="M109,4.71a0.19,0.19,0,0,0-.08.16c0,1.84.11,1.84,0.11,3.67s-0.24,1.83-.24,3.67a0.45,0.45,0,0,0,.21.19c1.73,0,1.55-.18,3.47-0.15,1.11,0,2.34.05,3.48,0.05,1.54,0,2.88,0,3.46-.08a6.66,6.66,0,0,0,2.73-.76A2.4,2.4,0,0,0,123.35,9a4.35,4.35,0,0,0-1.13-2.19,4.7,4.7,0,0,0-1.9-1.58,8.2,8.2,0,0,0-2.47-.51c-0.63,0-1.74.12-3,.12-1,0-2-.14-3-0.12C110.28,4.76,110.45,4.68,109,4.71Z" style="fill:none;stroke:#fff;stroke-miterlimit:10;stroke-width:1.25px"/><path d="M123.5,26.39c0.52,1,.85.78,1.37,1.75a1.69,1.69,0,0,0,0,.32l2.6,0c1.3,0,1.3-.31,2.6-0.33,0,0,0,.12,0,0.09-0.71-1.28-.57-1.36-1.28-2.63s-0.93-1.16-1.63-2.44-0.65-1.31-1.36-2.59-0.57-1.36-1.28-2.64c0,0,0,.1,0,0.09,1.49-.14,1.45-0.23,2.66-1.44a5.75,5.75,0,0,0,1.43-2.63,11.14,11.14,0,0,0,0-3,10.45,10.45,0,0,0-.26-3.12,4.72,4.72,0,0,0-2.1-2.24" style="fill:none;stroke:#fff;stroke-linecap:round;stroke-miterlimit:10;stroke-width:1.25px"/><path d="M107,26.29c0,1,0,.91,0,1.86,0,0-.07.13,0,0.13h3.84s0-.09,0-0.14c0-1.64,0-1.61,0-3.25s0.12-1.63.12-3.27-0.09-1.63-.09-3.27c0,0,.08,0,0.13,0,1.87,0,1.87-.07,3.75-0.07s1.87-.05,3.75-0.05" style="fill:none;stroke:#fff;stroke-miterlimit:10"/><path d="M122.82,7.59a7.43,7.43,0,0,0-3-.75c-0.63,0-1.73-.08-3-0.08-1,0-2,.08-3,0.09-1.65,0-1.48,0-3,0,0,0,0,0,0,0,0,1.36-.09,1.36-0.09,2.73S111,11,111,12.32" style="fill:none;stroke:#fff;stroke-miterlimit:10;stroke-width:1.25px"/><path d="M195,5.87a13.43,13.43,0,0,0-2.43-1.94,13.91,13.91,0,0,0-2.43-2A14.67,14.67,0,0,0,187,1.3,14.46,14.46,0,0,0,184,.63a15,15,0,0,0-3,.28,14.57,14.57,0,0,0-2.85.91,14,14,0,0,0-2.51,1.6,13.82,13.82,0,0,0-2.37,1.82,13.11,13.11,0,0,0-1.66,2.5,12.45,12.45,0,0,0-.7,2.89,11.52,11.52,0,0,0-.42,2.87,12,12,0,0,0,.12,2.78,12,12,0,0,0,1,2.58A12.75,12.75,0,0,0,173,21.3a13.51,13.51,0,0,0,2.1,1.86,14,14,0,0,0,2.6,1.86,14.55,14.55,0,0,0,3.07.92,9.72,9.72,0,0,0,6.11,0,14,14,0,0,0,2.74-1,14.35,14.35,0,0,0,2.75-1.14,13.83,13.83,0,0,0,2.29-1.94A13.14,13.14,0,0,0,196,19.08a12.12,12.12,0,0,0,1.35-2.63,12.25,12.25,0,0,0,.52-3,12,12,0,0,0-.65-2.7,11.81,11.81,0,0,0-1-2.53A12.73,12.73,0,0,0,195,5.87Z" style="fill:none;stroke:#fff;stroke-miterlimit:10;stroke-width:1.25px"/><path d="M178.16,20.08a9.62,9.62,0,0,0,2.76,1.42,10.32,10.32,0,0,0,3.07.72,10.68,10.68,0,0,0,2.84-.41,9.92,9.92,0,0,0,2.49-1.37,9.33,9.33,0,0,0,2.27-1.69A8.4,8.4,0,0,0,193,16.27a7.77,7.77,0,0,0,.53-2.77,7.87,7.87,0,0,0-.3-2.46A8.32,8.32,0,0,0,191.86,9a9.15,9.15,0,0,0-2-2.37,10.17,10.17,0,0,0-2.81-1.36A10.7,10.7,0,0,0,184,5a10.21,10.21,0,0,0-2.77.39,10.24,10.24,0,0,0-2.7.9,9.32,9.32,0,0,0-2,2A8.21,8.21,0,0,0,175,10.74a7.63,7.63,0,0,0-.38,2.76A7.53,7.53,0,0,0,175,16a8.2,8.2,0,0,0,1.14,2.35A9.13,9.13,0,0,0,178.16,20.08Z" style="fill:none;stroke:#fff;stroke-miterlimit:10;stroke-width:1.25px"/><path d="M195.56,5.86a19.72,19.72,0,0,0,1,2.49c0.48,0.76,1.18,1.38,1.63,2.14a13,13,0,0,1,1,2.48,7.91,7.91,0,0,1,.67,2.61,12.16,12.16,0,0,1-.46,3,12.38,12.38,0,0,1-1,2.81,13,13,0,0,1-1.83,2.35,13.36,13.36,0,0,1-2.25,1.91,13.71,13.71,0,0,1-2.6,1.36,13.92,13.92,0,0,1-2.78.88,16.63,16.63,0,0,1-9-.82,13.71,13.71,0,0,1-2.55-1.78,13,13,0,0,1-2.19-2.17" style="fill:none;stroke:#fff;stroke-linecap:square;stroke-miterlimit:10;stroke-width:1.25px"/><path d="M192,8.84a10,10,0,0,0-2.79-1.48,10.57,10.57,0,0,0-3.14-.43,10.3,10.3,0,0,0-2.77.55,10.1,10.1,0,0,0-2.67,1,9.24,9.24,0,0,0-2,2,8.25,8.25,0,0,0-1.49,2.38,7.84,7.84,0,0,0-.62,2.77,6.92,6.92,0,0,0,.81,3A7.33,7.33,0,0,0,179.16,21" style="fill:none;stroke:#fff;stroke-linecap:round;stroke-miterlimit:10;stroke-width:1.25px"/><path d="M161.19,26.07a0.54,0.54,0,0,1,.08.13c0-1.92-.14-1.92-0.14-3.84a0.5,0.5,0,0,0,.05-0.22c-1.4,0-1.4.25-2.8,0.25s-1.4-.21-2.81-0.21-1.4.15-2.81,0.15-1.4-.11-2.81-0.11-1.41-.13-2.81-0.13l-2.81,0s0,0.16,0,.12c0-1.42,0-1.42,0-2.83s0-1.41,0-2.83,0.08-1.42.08-2.83-0.06-1.42-.06-2.83-0.21-1.42-.21-2.83-0.13-1.42-.13-2.84,0-1.42,0-2.84a0.26,0.26,0,0,1,.15,0c-1.92,0-1.92.13-3.84,0.13a0.65,0.65,0,0,0-.12-0.08c0,1.49,0,1.49,0,3s0.07,1.49.07,3-0.1,1.49-.1,3,0.06,1.49.06,3,0.23,1.49.23,3-0.38,1.49-.38,3,0,1.49,0,3,0.2,1.49.2,3a0.45,0.45,0,0,1,.08-0.13c1.49,0,1.49.06,3,.06s1.49,0.12,3,.12,1.49,0,3,0,1.49,0.14,3,.14,1.49-.21,3-0.21,1.5,0.28,3,.21S159.7,26.07,161.19,26.07Z" style="fill:none;stroke:#fff;stroke-miterlimit:10;stroke-width:1.25px"/><path d="M147.24,22.6c0-1.52-.14-1.52-0.14-3s0.21-1.52.21-3,0.11-1.52.11-3-0.19-1.52-.19-3,0.2-1.52.2-3-0.15-1.52-.15-3a0.42,0.42,0,0,0-.11.07c-1.21,0-1.21-.25-2.42-0.25" style="fill:none;stroke:#fff;stroke-miterlimit:10;stroke-width:1.25px"/><path d="M143.16,26.1c0,1.05.13,1.05,0.13,2.11a0.48,0.48,0,0,0,.05.27c1.49,0,1.49-.21,3-0.21s1.49,0.08,3,.08,1.49,0.06,3,.06,1.49-.19,3-0.19,1.49,0.27,3,.27,1.49-.33,3-0.33,1.49,0.12,3,.12c0,0,0,0,0-.08,0-1.92.26-1.92,0.26-3.84a1,1,0,0,0-.29.09h-2.54" style="fill:none;stroke:#fff;stroke-miterlimit:10;stroke-width:1.25px"/><path d="M204.36,3a1.33,1.33,0,0,0-.15-0.11c0,2,.07,2,0.07,4.09a0.37,0.37,0,0,0,.08.23c1.64,0,1.64.09,3.28,0.09s1.64,0,3.28,0,1.64,0.05,3.28.05h0.24c0,1,.08,1.5.08,3.07s-0.07,1.54-.07,3.12,0,1.56,0,3.14-0.23,1.57-.23,3.15-0.08,1.58-.08,3.16,0.18,1.58.18,3.16c0,0,0,.05,0,0.05,1.92,0,1.92.08,3.84,0.08a0.27,0.27,0,0,0-.06-0.13c0-1.58.28-1.58,0.28-3.15s0-1.58,0-3.16-0.2-1.58-.2-3.16,0.2-1.58.2-3.16-0.28-1.58-.28-3.16,0.2-1.58.2-3.16a0,0,0,1,1,0,0c1.64,0,1.64.11,3.28,0.11s1.64-.2,3.28-0.2,1.64,0.2,3.28.2a0.59,0.59,0,0,0,0-.29c0-2,.09-2,0.09-4.09,0,0-.07.05-0.11,0.05-1.49,0-1.49-.27-3-0.27s-1.49.18-3,.18-1.49.13-3,.13-1.49-.18-3-0.18-1.49-.09-3-0.09-1.49,0-3,0-1.5-.16-3-0.1S205.85,3,204.36,3Z" style="fill:none;stroke:#fff;stroke-miterlimit:10"/><path d="M217.05,25.89c0,1.15.15,1.15,0.15,2.31,0,0,.11,0,0.15,0,1.92,0,1.92-.16,3.84-0.16,0,0,0,.18,0,0.13,0-1.58.21-1.58,0.21-3.15s-0.27-1.58-.27-3.16,0.25-1.58.25-3.16,0-1.58,0-3.16,0-1.58,0-3.16-0.18-1.58-.18-3.16a0.56,0.56,0,0,1,.1-0.29c1.64,0,1.64.28,3.28,0.28s1.64-.06,3.28-0.06,1.64,0.08,3.28.08a0.46,0.46,0,0,0,.23-0.18c0-2-.07-2-0.07-4.09a0.26,0.26,0,0,0-.15-0.15c-1.59,0-1.59,0-3.17,0" style="fill:none;stroke:#fff;stroke-miterlimit:10;stroke-width:1.25px"/><path d="M207.3,6.51c0,0.23-.09.23-0.09,0.45,0,0,.07.12,0.07,0.16,0,1-.06,1-0.06,2a0.16,0.16,0,0,0,.15.06c1.79,0,1.79,0,3.59,0s1.79,0.06,3.59.06" style="fill:none;stroke:#fff;stroke-miterlimit:10;stroke-width:1.25px"/><path d="M239.11,2.66a1.11,1.11,0,0,0,.12.22c0,2-.06,2-0.06,4.09a0.87,0.87,0,0,0-.06.3c1.64,0,1.64-.26,3.28-0.26s1.64,0.2,3.28.2H249a0.7,0.7,0,0,1,.23-0.08c0,1.58,0,1.58,0,3.15s-0.3,1.58-.3,3.16S249,15,249,16.59s0.25,1.58.25,3.16S249,21.33,249,22.91s-0.1,1.58-.1,3.16c0,0,.13-0.15.17-0.15C251,25.92,251,26,253,26a0.27,0.27,0,0,0,.15,0c0-1.58,0-1.58,0-3.15s0-1.58,0-3.16-0.3-1.58-.3-3.16S253,15,253,13.45s0.13-1.58.13-3.16-0.3-1.58-.3-3.16a1.85,1.85,0,0,1,.25.15c1.64,0,1.64-.28,3.28-0.28s1.64,0,3.28,0,1.64,0.06,3.28.06c0,0,0-.07,0-0.12,0-2,.24-2,0.24-4.09a0.48,0.48,0,0,0-.2-0.22c-1.49,0-1.49.27-3,.27s-1.49-.34-3-0.34h-3c-1.49,0-1.49.34-3,.34s-1.49-.34-3-0.34l-3,0c-1.49,0-1.49.08-3,0S240.6,2.66,239.11,2.66Z" style="fill:none;stroke:#fff;stroke-miterlimit:10;stroke-width:1.25px"/><path d="M252.09,25.89c0,1.15-.15,1.15-0.15,2.31a0.25,0.25,0,0,0,.18.1c1.92,0,1.92.07,3.84,0.07a0.21,0.21,0,0,0,0-.17c0-1.58.19-1.58,0.19-3.15s-0.25-1.58-.25-3.16,0.15-1.58.15-3.16,0.11-1.58.11-3.16-0.3-1.58-.3-3.16,0.08-1.58.08-3.16c0,0,.12,0,0.16,0,1.64,0,1.64.11,3.28,0.11S261,9,262.67,9s1.64,0.3,3.28.3a0.3,0.3,0,0,0,.1-0.2C266,7,266,7,266,5c0,0,0,.11,0,0.11-1.59,0-1.59-.12-3.17-0.12" style="fill:none;stroke:#fff;stroke-miterlimit:10;stroke-width:1.25px"/><path d="M242,6.51c0,0.23.13,0.23,0.13,0.45,0,0-.11.12-0.11,0.16,0,1,0,1,0,2a0.16,0.16,0,0,0,.14.09c1.79,0,1.79,0,3.58,0s1.79,0,3.59,0" style="fill:none;stroke:#fff;stroke-miterlimit:10;stroke-width:1.25px"/><path d="M274.87,2.05a0.86,0.86,0,0,0,0,.31c0,1.49,0,1.49,0,3s-0.22,1.49-.22,3,0.15,1.49.15,3-0.1,1.49-.1,3-0.08,1.49-.08,3-0.06,1.49-.06,3,0.11,1.49.11,3,0,1.49,0,3a0.23,0.23,0,0,0,.17.11c1.57,0,1.57,0,3.13,0s1.57-.29,3.14-0.29,1.57,0.3,3.14.3,1.57,0.17,3.14.17,1.57-.06,3.14-0.06l3.14,0a0.61,0.61,0,0,0,.23-0.24c0-1.92,0-1.92,0-3.84a1.93,1.93,0,0,0-.27.15c-1.48,0-1.48-.28-3-0.28s-1.48,0-3,0-1.48-.09-3-0.09-1.49.19-3,.19-1.49.21-3,.21a0.58,0.58,0,0,1-.07-0.29c0-1.46-.16-1.46-0.16-2.92s0.37-1.46.37-2.92a1.93,1.93,0,0,1-.15-0.23c1.35,0,1.35.11,2.71,0.11s1.35-.15,2.71-0.15,1.36,0.31,2.71.31h2.71a0.26,0.26,0,0,0,.08-0.19c0-1.92.06-1.92,0.06-3.84a0.31,0.31,0,0,0-.14-0.18c-1.35,0-1.35-.09-2.71-0.09s-1.35.12-2.71,0.12-1.36.26-2.71,0.26-1.36,0-2.71,0a0.37,0.37,0,0,1-.1-0.23c0-1.46.05-1.46,0.05-2.92s0-1.46,0-2.92V6.06c2,0,1.52.4,3,.4h3c1.48,0,1.49-.07,3-0.07s1.49-.27,3-0.27,1.49,0.33,3,.33a0.63,0.63,0,0,0,.23-0.25c0-1.92-.33-1.92-0.33-3.84,0,0,.15,0,0.1,0-1.57,0-1.57.13-3.13,0.13s-1.57-.08-3.14-0.08-1.57-.19-3.14-0.19-1.57,0-3.14,0-1.57.09-3.15,0S276.44,2.05,274.87,2.05Z" style="fill:none;stroke:#fff;stroke-miterlimit:10"/><path d="M280.71,11.91c0-1.77.22-1.77,0.22-3.55a0.27,0.27,0,0,1-.06-0.08c1.38,0,1.38.09,2.77,0.09s1.38-.1,2.77-0.1,1.38,0,2.77,0,1.39,0,2.77,0h2.77s0-.06,0-0.1c0-1.92.09-1.91,0.09-3.83,0,0-.06,0-0.11,0-0.55,0-.55-0.16-1.11-0.16" style="fill:none;stroke:#fff;stroke-miterlimit:10"/><path d="M280.71,22.19c0-1.91.09-1.91,0.09-3.82a0.15,0.15,0,0,1,.07-0.14c1.35,0,1.35.13,2.71,0.13s1.35,0,2.71,0,1.36,0.05,2.71.05,1.36,0,2.71,0a0.25,0.25,0,0,0,0-.18c0-1.92.06-1.92,0.06-3.84,0,0,0,0-.06,0-0.83,0-.83,0-1.67,0" style="fill:none;stroke:#fff;stroke-miterlimit:10;stroke-width:1.25px"/><path d="M276.81,26.16c0,1-.18,1-0.18,2a0.47,0.47,0,0,0,.25.15c1.57,0,1.57.11,3.13,0.11s1.57-.16,3.14-0.16,1.57,0,3.14,0,1.57,0.07,3.14.07,1.57,0,3.14,0,1.57-.24,3.14-0.24a0.31,0.31,0,0,0,.21,0c0-1.92-.21-1.92-0.21-3.84a0.45,0.45,0,0,0,0-.24c-1.05,0-1.05.26-2.11,0.26" style="fill:none;stroke:#fff;stroke-miterlimit:10;stroke-width:1.25px"/></svg>