<?xml version="1.0" encoding="utf-8"?>
<!-- Generator: Adobe Illustrator 19.1.0, SVG Export Plug-In . SVG Version: 6.00 Build 0)  -->
<svg version="1.1" id="Layer_1" xmlns="http://www.w3.org/2000/svg" xmlns:xlink="http://www.w3.org/1999/xlink" x="0px" y="0px"
	 viewBox="-7 -8.2 89.8 37.2" style="enable-background:new -7 -8.2 89.8 37.2;" xml:space="preserve">
<style type="text/css">
	.st0{fill:none;stroke:#000000;stroke-miterlimit:10;}
	.st1{fill:none;stroke:#DD6126;stroke-linecap:round;stroke-miterlimit:10;}
</style>
<g>
	<g>
		<path class="st0" d="M18.5,24.8"/>
	</g>
</g>
<g>
	<g>
		<path class="st0" d="M28.5,21.4"/>
	</g>
</g>
<g>
	<path class="st1" d="M81.2-6.7H-5.5v34.1c1.5,0.4,3.2-0.2,4.8-0.3c1.5-0.1,3.2,0.2,4.7,0c1.5-0.2,3-1.9,4.6-1.8
		c2,0.1,4.3,2,6.2,1.3c1.1-0.4,2-1.6,3.1-1.4c0.5,0.1,0.8,0.6,1.3,0.8c1.1,0.5,2.5,0.7,3.7,0.7c1.5-0.1,3-1.1,4.5-1.2
		c1.5-0.1,3.1,1.2,4.6,1.1s3.1-0.5,4.6-0.6c2.1-0.6,2.9-2.2,4-2.3c1.6,0,3,1.3,4.6,1.5c1.5,0.2,3.1,0.8,4.6,1
		c1.6,0.2,3.2-0.7,4.7-0.9c1.6-0.2,3.1,0.1,4.7,0.4c1.2,0.2,2.3,0.9,3.4,1.2c1.3,0.4,2.5-0.4,3.6-1.1c0.8-0.3,1.4-1.5,2.3-1.8
		c0.6-0.2,1.4,0.5,2,0.6c1.7,0.2,3.3,1.1,5,1.3c1.7,0.2,3.4,0.3,5.1,0.5L81.2-6.7z"/>
</g>
</svg>
