<svg xmlns="http://www.w3.org/2000/svg" viewBox="0 0 360 40"><title>tagline</title><path d="M358,2V38H2V2H358m2-2H0V40H360V0h0Z" style="fill:#047570"/><path d="M20.46,19.82l0.09,0.78a16.91,16.91,0,0,1-1.39,6.18,13.36,13.36,0,0,1-3.76,5.76,4.13,4.13,0,0,1-2.53,1,2.49,2.49,0,0,1-1.25-.32,1,1,0,0,1-.56-0.95q0.81-.85.81-4.35,0-2.06-.34-6.12T11.19,15.7l0.11-4A11.66,11.66,0,0,0,10.89,9a11.49,11.49,0,0,1-.41-2.34q0-1.28,2.84-1.28h0.56q3.78,0,5.47,4.23a22.28,22.28,0,0,1,1.19,8.13v1.72A0.69,0.69,0,0,0,20.46,19.82Zm-6.81,8v3.54a8.18,8.18,0,0,0,2.42-2.52,13.24,13.24,0,0,0,1.57-3.53,27.42,27.42,0,0,0,1-7.32,17,17,0,0,0-1-6.61A6.2,6.2,0,0,0,15,8.11a4.57,4.57,0,0,0-2.2-.49v0q0,3.34.44,10.06T13.65,27.84Z" style="fill:#047570"/><path d="M27.37,19.89l-0.92,0a0.92,0.92,0,0,0-.76.27V31.55l2.06-.11q2.11,0,2.11,1v0.13a1.68,1.68,0,0,1-.87.78,3.39,3.39,0,0,1-1.08.31q-0.47,0-1.21,0H25.55a1.91,1.91,0,0,1-1.7-.54,1.34,1.34,0,0,1-.14-0.67V11a10.38,10.38,0,0,0-.25-1.88,10.36,10.36,0,0,1-.25-1.9V7a7.17,7.17,0,0,1,.92-1.3l2.75-.33A2.22,2.22,0,0,1,28,5.76a1,1,0,0,1,.57.88q0,1.1-1.68,1.1l-1.07,0-0.4,0,0.29,6.11q0,0.74-.09,2.16t-0.09,2.07l0.54-.13a5,5,0,0,1,1.18-.2A1.09,1.09,0,0,1,28,18a1,1,0,0,1,.33.74,1.22,1.22,0,0,1-.27.78A0.86,0.86,0,0,1,27.37,19.89Z" style="fill:#047570"/><path d="M32.37,5.21q1,0,3.41,15.56,0.94,6.09,1,6.56,0.25-2.08.9-6.67A107.56,107.56,0,0,0,39.07,5.84a1.69,1.69,0,0,1,1.35-.74L41.2,5.51q-0.09.63-.4,3.6t-0.58,5.31Q40,16.77,39.7,18.85t-0.55,4.41q-0.3,2.32-.57,4.17T38,30.82q-0.58,3.23-.94,3.23a1.1,1.1,0,0,1-.87-0.4q-0.9-3.72-2.64-14.44T31.34,5.93A1,1,0,0,1,32.37,5.21Z" style="fill:#047570"/><path d="M47.72,19.89l-0.92,0a0.92,0.92,0,0,0-.76.27V31.55l2.06-.11q2.11,0,2.11,1v0.13a1.68,1.68,0,0,1-.87.78,3.39,3.39,0,0,1-1.08.31q-0.47,0-1.21,0H45.89a1.91,1.91,0,0,1-1.7-.54A1.34,1.34,0,0,1,44,32.45V11a10.38,10.38,0,0,0-.25-1.88,10.36,10.36,0,0,1-.25-1.9V7a7.17,7.17,0,0,1,.92-1.3l2.75-.33a2.22,2.22,0,0,1,1.13.33,1,1,0,0,1,.57.88q0,1.1-1.68,1.1l-1.07,0-0.4,0,0.29,6.11q0,0.74-.09,2.16t-0.09,2.07l0.54-.13a5,5,0,0,1,1.18-.2,1.09,1.09,0,0,1,.76.31,1,1,0,0,1,.33.74,1.22,1.22,0,0,1-.27.78A0.86,0.86,0,0,1,47.72,19.89Z" style="fill:#047570"/><path d="M54.57,19.44l0,1.17v0.16q0.14,3.22.14,9.65v0.94h2.82a1.44,1.44,0,0,1,.79,1,1.19,1.19,0,0,1-.27.8,0.76,0.76,0,0,1-.56.32,2.13,2.13,0,0,1-.67-0.13,3.06,3.06,0,0,1-.7.07L55,33.41a1.19,1.19,0,0,1-.95.45,1.37,1.37,0,0,1-1-.35,1.08,1.08,0,0,1-.39-0.82l0.23-1.63q0-4.21-.37-12.62T52.17,5.82a0.66,0.66,0,0,1,.27-0.55,1.08,1.08,0,0,1,.68-0.21,1.07,1.07,0,0,1,.74.31,1,1,0,0,1,.33.76Z" style="fill:#047570"/><path d="M69.85,22.28L69.53,27v0.16a10,10,0,0,0-.23,2.22,6.53,6.53,0,0,1-.42,2.3,5.53,5.53,0,0,1-1.26,2,2.58,2.58,0,0,1-1.86.86,2.83,2.83,0,0,1-1.84-.69A5.4,5.4,0,0,1,62.53,32a14.2,14.2,0,0,1-1-2.57,26.15,26.15,0,0,1-.64-2.91q-0.23-1.42-.37-3-0.22-2.4-.21-3.73t0-2.28q0-.95,0-1.71V14q0-1.07.06-1.92t0.16-1.83a15.13,15.13,0,0,1,.3-1.73,9.31,9.31,0,0,1,.49-1.47A5,5,0,0,1,62,5.86a2.69,2.69,0,0,1,2.08-1,4.37,4.37,0,0,1,2,.42,3.54,3.54,0,0,1,1.4,1.36q0.57,0.94,1,1.82a9.08,9.08,0,0,1,.67,2.47q0.24,1.58.39,2.56a26.52,26.52,0,0,1,.2,2.84q0.07,2.48.07,3.87v2.13ZM66.57,8.74a3.91,3.91,0,0,0-.92-1.46,1.62,1.62,0,0,0-1.09-.52,1.17,1.17,0,0,0-.89.38,3.05,3.05,0,0,0-.6,1.08,15.35,15.35,0,0,0-.43,1.49,13.62,13.62,0,0,0-.29,1.83q-0.1,1-.17,1.89t-0.09,1.84q0,1.68-.05,2.62v0.16a40.79,40.79,0,0,0,.38,5.34q0.38,2.86.79,4.69a12,12,0,0,0,1.09,3.1,1.92,1.92,0,0,0,1.54,1.27q0.74,0,1.25-1.39a15.07,15.07,0,0,0,.72-3.47q0.36-3.69.37-5.18t0-2.18q0-.69-0.05-2T68,15.78q-0.11-1.15-.28-2.54a19.52,19.52,0,0,0-.45-2.48A17.86,17.86,0,0,0,66.57,8.74Z" style="fill:#047570"/><path d="M73.08,32.39l0.18-13.21A68.09,68.09,0,0,0,72.3,6a1.7,1.7,0,0,1,1.43-.83,5.15,5.15,0,0,1,2.5.61,5.26,5.26,0,0,1,1.83,1.63,8.27,8.27,0,0,1,1.46,4.82,10.34,10.34,0,0,1-1.17,4.92,8.24,8.24,0,0,1-3.45,3.44l0.29,11.53q0,1.54-1.23,1.54a0.72,0.72,0,0,1-.67-0.39A1.73,1.73,0,0,1,73.08,32.39Zm1.73-13.6a8.3,8.3,0,0,0,2.82-6.27v0a6,6,0,0,0-.51-2.91L76.72,9a3.32,3.32,0,0,0-.62-0.61q-0.56-.45-1.72-1.28,0,2,.22,5.85T74.81,18.79Z" style="fill:#047570"/><path d="M86.2,19.89l-0.92,0a0.92,0.92,0,0,0-.76.27V31.55l2.06-.11q2.11,0,2.11,1v0.13a1.68,1.68,0,0,1-.87.78,3.39,3.39,0,0,1-1.08.31q-0.47,0-1.21,0H84.38a1.91,1.91,0,0,1-1.7-.54,1.34,1.34,0,0,1-.14-0.67V11a10.38,10.38,0,0,0-.25-1.88A10.36,10.36,0,0,1,82,7.17V7A7.17,7.17,0,0,1,83,5.75l2.75-.33a2.22,2.22,0,0,1,1.13.33,1,1,0,0,1,.57.88q0,1.1-1.68,1.1l-1.07,0-0.4,0,0.29,6.11q0,0.74-.09,2.16t-0.09,2.07l0.54-.13a5,5,0,0,1,1.18-.2,1.09,1.09,0,0,1,.76.31,1,1,0,0,1,.33.74,1.22,1.22,0,0,1-.27.78A0.86,0.86,0,0,1,86.2,19.89Z" style="fill:#047570"/><path d="M91,32.36l0.14-21.7V6.11a0.85,0.85,0,0,1,.18-0.61,1.54,1.54,0,0,1,.95-0.18,3.62,3.62,0,0,1,1.55.37,4,4,0,0,1,1.33,1,7.33,7.33,0,0,1,.9,1.45,7.76,7.76,0,0,1,.72,3.34,11.65,11.65,0,0,1-.9,4.14l-0.43,1.07-0.38,1a25.71,25.71,0,0,0,1.39,7.14q0.47,1.48,1.34,4.06t1.08,3.26v0.09a2.1,2.1,0,0,1-.29,1.46,1,1,0,0,1-.61.21,1.75,1.75,0,0,1-1.34-1V32.7a46.42,46.42,0,0,0-2.31-10.17q-1-3.11-1.35-4.61V32.5a1.6,1.6,0,0,1-.2.87,0.79,0.79,0,0,1-.72.31,1,1,0,0,1-.79-0.3A1.07,1.07,0,0,1,91,32.65V32.36ZM93.06,7l-0.2,7.55q0,1.14,0,1.7a10.69,10.69,0,0,0,1.25-1.43l0.58-3.2a2.77,2.77,0,0,0,.05-0.58,8.06,8.06,0,0,0-.36-2.15Q93.91,7.17,93.06,7Z" style="fill:#047570"/><path d="M109,5.75l0.07,20.85V34a0.87,0.87,0,0,1-.28.65,0.91,0.91,0,0,1-.66.27q-0.92,0-.92-3.5L106.94,6.16a1.16,1.16,0,0,1,1.28-1.34,0.65,0.65,0,0,1,.54.29A1,1,0,0,1,109,5.75Z" style="fill:#047570"/><path d="M128.77,19.82l0.09,0.78a16.91,16.91,0,0,1-1.39,6.18,13.36,13.36,0,0,1-3.76,5.76,4.13,4.13,0,0,1-2.53,1,2.49,2.49,0,0,1-1.25-.32,1,1,0,0,1-.56-0.95q0.81-.85.81-4.35,0-2.06-.34-6.12T119.5,15.7l0.11-4A11.66,11.66,0,0,0,119.2,9a11.49,11.49,0,0,1-.41-2.34q0-1.28,2.84-1.28h0.56q3.78,0,5.47,4.23a22.28,22.28,0,0,1,1.19,8.13v1.72A0.69,0.69,0,0,0,128.77,19.82Zm-6.81,8v3.54a8.18,8.18,0,0,0,2.42-2.52,13.24,13.24,0,0,0,1.57-3.53A27.42,27.42,0,0,0,127,18a17,17,0,0,0-1-6.61,6.2,6.2,0,0,0-2.64-3.29,4.57,4.57,0,0,0-2.2-.49v0q0,3.34.44,10.06T122,27.84Z" style="fill:#047570"/><path d="M135.68,19.89l-0.92,0a0.92,0.92,0,0,0-.76.27V31.55l2.06-.11q2.11,0,2.11,1v0.13a1.68,1.68,0,0,1-.87.78,3.39,3.39,0,0,1-1.08.31q-0.47,0-1.21,0h-1.16a1.91,1.91,0,0,1-1.7-.54,1.34,1.34,0,0,1-.14-0.67V11a10.38,10.38,0,0,0-.25-1.88,10.36,10.36,0,0,1-.25-1.9V7a7.17,7.17,0,0,1,.92-1.3l2.75-.33a2.22,2.22,0,0,1,1.13.33,1,1,0,0,1,.57.88q0,1.1-1.68,1.1l-1.07,0-0.4,0L134,13.82q0,0.74-.09,2.16t-0.09,2.07l0.54-.13a5,5,0,0,1,1.18-.2,1.09,1.09,0,0,1,.76.31,1,1,0,0,1,.33.74,1.22,1.22,0,0,1-.27.78A0.86,0.86,0,0,1,135.68,19.89Z" style="fill:#047570"/><path d="M139.77,33a0.81,0.81,0,0,1,.83-1,3.05,3.05,0,0,1,1.09.28,3.15,3.15,0,0,0,1.17.28,1.57,1.57,0,0,0,1.07-.63,4.45,4.45,0,0,0,.9-1.57,10.62,10.62,0,0,0,.67-3.46A11.36,11.36,0,0,0,145,23.6a21.51,21.51,0,0,0-1.32-3.32q-0.78-1.55-1.57-3.11a14.93,14.93,0,0,1-1.86-6.76A5.71,5.71,0,0,1,142,5.87,3.34,3.34,0,0,1,144.34,5a2.55,2.55,0,0,1,1.3.37,2,2,0,0,1,.89,1l-0.63.79a2.51,2.51,0,0,1-1.45-.36,1.8,1.8,0,0,0-1.19.65,3.88,3.88,0,0,0-.92,2.63,11.69,11.69,0,0,0,.4,3,13.67,13.67,0,0,0,1,2.66L145,18.3q0.7,1.37,1.3,2.64a14.54,14.54,0,0,1,1.39,6.32,9.16,9.16,0,0,1-1.21,4.59,4.91,4.91,0,0,1-1.59,1.73,4,4,0,0,1-2.26.68,4.63,4.63,0,0,1-2.1-.4A1.12,1.12,0,0,1,139.77,33Z" style="fill:#047570"/><path d="M154.42,7.39l-0.65,0a0.78,0.78,0,0,0-.53.15,0.8,0.8,0,0,0-.17.6q0,3.61.45,10.82T154,29.77V31.2a5.36,5.36,0,0,1,.76-0.05,1.26,1.26,0,0,1,1.54,1.3v0.22l-0.92.63-2.51.09q-3.2,0-3.2-1.1a0.9,0.9,0,0,1,1.12-.88l0.78,0.05q0.54,0,.54-0.87,0-2.85-.34-8.55t-0.34-8.55l0.07-3.78a20.27,20.27,0,0,0-.09-2.06,2.78,2.78,0,0,1-.87.16,0.77,0.77,0,0,1-.87-0.89,0.94,0.94,0,0,1,.56-0.79,4.07,4.07,0,0,1,1.39-.48,14.88,14.88,0,0,1,2.3-.27,1.57,1.57,0,0,1,1.07.3,0.92,0.92,0,0,1,.33.7,1.08,1.08,0,0,1-.24.71A0.77,0.77,0,0,1,154.42,7.39Z" style="fill:#047570"/><path d="M166.71,26.74l-1.45.14a1,1,0,0,1-1.26-1q0-.9,2.38-1.17a9,9,0,0,1,1-.05,1.15,1.15,0,0,1,1,.58,2.68,2.68,0,0,1,.4,1.54,21.48,21.48,0,0,0,.37,3.15,21.91,21.91,0,0,1,.37,2.94q0,1.35-.91,1.35a1.19,1.19,0,0,1-1.22-.78v0q-0.22.09-.81,0.42a4.6,4.6,0,0,1-2.22.61,4.17,4.17,0,0,1-1.59-.32,5,5,0,0,1-2.6-2.26,10.6,10.6,0,0,1-1.28-3.22q-0.31-1.54-.42-2.42t-0.2-2.06q-0.09-1.46-.09-3.52l0-2.73a38.79,38.79,0,0,1,.23-5.13q0.23-1.55.48-2.55a11.72,11.72,0,0,1,.57-1.76,9.57,9.57,0,0,1,.79-1.49,4.61,4.61,0,0,1,1.08-1.21,4.68,4.68,0,0,1,3-1q1.7,0,1.7,1.06a0.77,0.77,0,0,1-.29.63,1.05,1.05,0,0,1-.69.23L164,6.43a2.47,2.47,0,0,0-2.19,1.68,12.43,12.43,0,0,0-1.08,3.47q-0.24,1.64-.34,2.66a19.64,19.64,0,0,0-.18,2.26q-0.07,1.75-.05,3.5l0,2.29a27.65,27.65,0,0,0,.32,5,15.85,15.85,0,0,0,.66,2.38,5,5,0,0,0,.79,1.48,5.91,5.91,0,0,0,2.69,1.32A3.23,3.23,0,0,0,167.31,31,10.57,10.57,0,0,0,166.71,26.74Z" style="fill:#047570"/><path d="M172,14.06l0.25-6.79V7q0-1.84.81-1.84t2,3.43a181.41,181.41,0,0,1,5.46,20.58l0,0.18,0.14-12.9V5.53a1.11,1.11,0,0,1,1.21-.92q1,0,1,1.45V6.27a2.49,2.49,0,0,0-.22,1.08L182.46,21V32.34a2.22,2.22,0,0,1-.31,1.1,0.89,0.89,0,0,1-.76.54q-0.78,0-3-7.62T173.89,10V22.13q0,1.77.26,5.28t0.26,5.28a0.66,0.66,0,0,1-.42.57,2.2,2.2,0,0,1-1.06.23,0.54,0.54,0,0,1-.64-0.58l0.18-2.66q0-1.91-.23-6.21T172,18.77V14.06Z" style="fill:#047570"/><path d="M189.86,19.89l-0.92,0a0.92,0.92,0,0,0-.76.27V31.55l2.06-.11q2.11,0,2.11,1v0.13a1.68,1.68,0,0,1-.87.78,3.39,3.39,0,0,1-1.08.31q-0.47,0-1.21,0H188a1.92,1.92,0,0,1-1.7-.54,1.34,1.34,0,0,1-.14-0.67V11a10.34,10.34,0,0,0-.25-1.88,10.36,10.36,0,0,1-.25-1.9V7a7.16,7.16,0,0,1,.92-1.3l2.75-.33a2.22,2.22,0,0,1,1.13.33,1,1,0,0,1,.57.88q0,1.1-1.68,1.1l-1.07,0-0.4,0,0.29,6.11q0,0.74-.09,2.16T188,18.05l0.54-.13a5,5,0,0,1,1.18-.2,1.09,1.09,0,0,1,.76.31,1,1,0,0,1,.33.74,1.22,1.22,0,0,1-.27.78A0.86,0.86,0,0,1,189.86,19.89Z" style="fill:#047570"/><path d="M194.67,32.36l0.14-21.7V6.11A0.85,0.85,0,0,1,195,5.49a1.54,1.54,0,0,1,.95-0.18,3.62,3.62,0,0,1,1.55.37,4,4,0,0,1,1.33,1,7.31,7.31,0,0,1,.9,1.45,7.76,7.76,0,0,1,.72,3.34,11.64,11.64,0,0,1-.9,4.14l-0.43,1.07-0.38,1a25.72,25.72,0,0,0,1.39,7.14q0.47,1.48,1.34,4.06t1.08,3.26v0.09a2.1,2.1,0,0,1-.29,1.46,1,1,0,0,1-.61.21,1.75,1.75,0,0,1-1.34-1V32.7A46.4,46.4,0,0,0,198,22.53q-1-3.11-1.35-4.61V32.5a1.59,1.59,0,0,1-.2.87,0.79,0.79,0,0,1-.72.31,1,1,0,0,1-.79-0.3,1.07,1.07,0,0,1-.26-0.73V32.36Zm2-25.35-0.2,7.55q0,1.14,0,1.7a10.7,10.7,0,0,0,1.25-1.43l0.58-3.2a2.84,2.84,0,0,0,.05-0.58,8,8,0,0,0-.36-2.15Q197.56,7.17,196.71,7Z" style="fill:#047570"/><path d="M212.63,5.75l0.07,20.85V34a0.87,0.87,0,0,1-.28.65,0.91,0.91,0,0,1-.66.27q-0.92,0-.92-3.5L210.59,6.16a1.16,1.16,0,0,1,1.28-1.34,0.65,0.65,0,0,1,.54.29A1,1,0,0,1,212.63,5.75Z" style="fill:#047570"/><path d="M222.48,33a0.81,0.81,0,0,1,.83-1,3,3,0,0,1,1.09.28,3.15,3.15,0,0,0,1.17.28,1.57,1.57,0,0,0,1.07-.63,4.44,4.44,0,0,0,.9-1.57,10.62,10.62,0,0,0,.67-3.46,11.36,11.36,0,0,0-.54-3.31,21.41,21.41,0,0,0-1.32-3.32q-0.78-1.55-1.57-3.11a14.93,14.93,0,0,1-1.86-6.76,5.71,5.71,0,0,1,1.82-4.53A3.34,3.34,0,0,1,227.05,5a2.55,2.55,0,0,1,1.3.37,2,2,0,0,1,.88,1l-0.63.79a2.52,2.52,0,0,1-1.45-.36,1.8,1.8,0,0,0-1.19.65,3.88,3.88,0,0,0-.92,2.63,11.71,11.71,0,0,0,.4,3,13.74,13.74,0,0,0,1,2.66l1.28,2.55q0.7,1.37,1.3,2.64a14.53,14.53,0,0,1,1.39,6.32,9.14,9.14,0,0,1-1.21,4.59,4.91,4.91,0,0,1-1.59,1.73,4,4,0,0,1-2.26.68,4.63,4.63,0,0,1-2.1-.4A1.12,1.12,0,0,1,222.48,33Z" style="fill:#047570"/><path d="M242.2,22.28L241.88,27v0.16a10,10,0,0,0-.23,2.22,6.52,6.52,0,0,1-.42,2.3,5.52,5.52,0,0,1-1.26,2,2.58,2.58,0,0,1-1.86.86,2.83,2.83,0,0,1-1.84-.69A5.4,5.4,0,0,1,234.89,32a14.23,14.23,0,0,1-1-2.57,26,26,0,0,1-.64-2.91q-0.23-1.42-.37-3-0.22-2.4-.21-3.73t0-2.28q0-.95,0-1.71V14q0-1.07.06-1.92t0.16-1.83a14.91,14.91,0,0,1,.3-1.73,9.31,9.31,0,0,1,.49-1.47,5,5,0,0,1,.72-1.21,2.69,2.69,0,0,1,2.08-1,4.37,4.37,0,0,1,2,.42,3.54,3.54,0,0,1,1.4,1.36q0.57,0.94,1,1.82a9.08,9.08,0,0,1,.67,2.47q0.24,1.58.39,2.56a26.68,26.68,0,0,1,.2,2.84q0.07,2.48.07,3.87v2.13ZM238.92,8.74A3.92,3.92,0,0,0,238,7.27a1.63,1.63,0,0,0-1.09-.52,1.16,1.16,0,0,0-.89.38,3.05,3.05,0,0,0-.6,1.08A15.35,15.35,0,0,0,235,9.7a13.62,13.62,0,0,0-.29,1.83q-0.1,1-.17,1.89t-0.09,1.84q0,1.68-.05,2.62v0.16a40.8,40.8,0,0,0,.38,5.34q0.38,2.86.79,4.69a12,12,0,0,0,1.09,3.1,1.92,1.92,0,0,0,1.54,1.27q0.74,0,1.25-1.39a15.07,15.07,0,0,0,.72-3.47q0.36-3.69.37-5.18t0-2.18q0-.69-0.05-2t-0.15-2.46q-0.11-1.15-.28-2.54a19.7,19.7,0,0,0-.45-2.48A17.86,17.86,0,0,0,238.92,8.74Z" style="fill:#047570"/><path d="M247.06,15.39L246.73,18v0.89a53.1,53.1,0,0,0,.19,5.69q0.19,1.39.39,2.49a9.49,9.49,0,0,0,.51,1.88,9.34,9.34,0,0,0,.75,1.46,2.7,2.7,0,0,0,2.4,1.37,3,3,0,0,0,1.57-.66,2.93,2.93,0,0,1,1.43-.66,1.57,1.57,0,0,1,1,.56,2.77,2.77,0,0,1-2.11,2.66,6.64,6.64,0,0,1-2.28.38,4.15,4.15,0,0,1-2.1-.5,4.62,4.62,0,0,1-1.45-1.28,7.74,7.74,0,0,1-1-2,19.06,19.06,0,0,1-.69-2.44Q245.18,26.58,245,25q-0.22-2.67-.23-5.85l0-4.43a18.52,18.52,0,0,1,.25-3.41,6.46,6.46,0,0,1-.11-1.16,4.38,4.38,0,0,1,1.7-3.62,6.54,6.54,0,0,1,4.19-1.35,3.4,3.4,0,0,1,1.73.5A1.48,1.48,0,0,1,253.45,7a0.71,0.71,0,0,1-.31.61,1.86,1.86,0,0,1-1,.22,1.07,1.07,0,0,1-1-.45v0H250.6V7.28a3.09,3.09,0,0,0-2.93,1.34,8.92,8.92,0,0,0-.72,4.23Z" style="fill:#047570"/><path d="M259.23,15.39L258.9,18v0.89a53.1,53.1,0,0,0,.19,5.69q0.19,1.39.39,2.49a9.49,9.49,0,0,0,.51,1.88,9.34,9.34,0,0,0,.75,1.46,2.7,2.7,0,0,0,2.4,1.37,3,3,0,0,0,1.57-.66,2.93,2.93,0,0,1,1.43-.66,1.57,1.57,0,0,1,1,.56,2.77,2.77,0,0,1-2.11,2.66,6.64,6.64,0,0,1-2.28.38,4.15,4.15,0,0,1-2.1-.5,4.62,4.62,0,0,1-1.45-1.28,7.74,7.74,0,0,1-1-2,19.06,19.06,0,0,1-.69-2.44q-0.22-1.23-.36-2.82Q257,22.31,257,19.13l0-4.43a18.52,18.52,0,0,1,.25-3.41,6.46,6.46,0,0,1-.11-1.16,4.38,4.38,0,0,1,1.7-3.62A6.54,6.54,0,0,1,263,5.17a3.4,3.4,0,0,1,1.73.5A1.48,1.48,0,0,1,265.62,7a0.71,0.71,0,0,1-.31.61,1.86,1.86,0,0,1-1,.22,1.07,1.07,0,0,1-1-.45v0h-0.51V7.28a3.09,3.09,0,0,0-2.93,1.34,8.92,8.92,0,0,0-.72,4.23Z" style="fill:#047570"/><path d="M273.51,19.89l-0.92,0a0.92,0.92,0,0,0-.76.27V31.55l2.06-.11q2.11,0,2.11,1v0.13a1.68,1.68,0,0,1-.87.78,3.39,3.39,0,0,1-1.08.31q-0.47,0-1.21,0h-1.16a1.92,1.92,0,0,1-1.7-.54,1.34,1.34,0,0,1-.14-0.67V11a10.34,10.34,0,0,0-.25-1.88,10.36,10.36,0,0,1-.25-1.9V7a7.22,7.22,0,0,1,.92-1.3L273,5.42a2.22,2.22,0,0,1,1.13.33,1,1,0,0,1,.57.88q0,1.1-1.68,1.1L272,7.7l-0.4,0,0.29,6.11q0,0.74-.09,2.16t-0.09,2.07l0.54-.13a5,5,0,0,1,1.18-.2,1.09,1.09,0,0,1,.76.31,1,1,0,0,1,.33.74,1.22,1.22,0,0,1-.27.78A0.86,0.86,0,0,1,273.51,19.89Z" style="fill:#047570"/><path d="M278.32,32.36l0.14-21.7V6.11a0.85,0.85,0,0,1,.18-0.61,1.54,1.54,0,0,1,.95-0.18,3.62,3.62,0,0,1,1.55.37,4,4,0,0,1,1.33,1,7.31,7.31,0,0,1,.9,1.45,7.76,7.76,0,0,1,.72,3.34,11.64,11.64,0,0,1-.9,4.14l-0.43,1.07-0.38,1a25.72,25.72,0,0,0,1.39,7.14q0.47,1.48,1.34,4.06t1.08,3.26v0.09a2.1,2.1,0,0,1-.29,1.46,1,1,0,0,1-.61.21,1.75,1.75,0,0,1-1.34-1V32.7a46.4,46.4,0,0,0-2.31-10.17q-1-3.11-1.35-4.61V32.5a1.59,1.59,0,0,1-.2.87,0.79,0.79,0,0,1-.72.31,1,1,0,0,1-.79-0.3,1.07,1.07,0,0,1-.26-0.73V32.36Zm2-25.35-0.2,7.55q0,1.14,0,1.7a10.7,10.7,0,0,0,1.25-1.43l0.58-3.2a2.84,2.84,0,0,0,.05-0.58,8,8,0,0,0-.36-2.15Q281.21,7.17,280.37,7Z" style="fill:#047570"/><path d="M295.09,15.39L294.77,18v0.89a53.1,53.1,0,0,0,.19,5.69q0.19,1.39.39,2.49a9.49,9.49,0,0,0,.51,1.88,9.34,9.34,0,0,0,.75,1.46,2.7,2.7,0,0,0,2.4,1.37,3,3,0,0,0,1.57-.66,2.93,2.93,0,0,1,1.43-.66,1.57,1.57,0,0,1,1,.56,2.77,2.77,0,0,1-2.11,2.66,6.64,6.64,0,0,1-2.28.38,4.15,4.15,0,0,1-2.1-.5,4.62,4.62,0,0,1-1.45-1.28,7.74,7.74,0,0,1-1-2,19.06,19.06,0,0,1-.69-2.44q-0.22-1.23-.36-2.82-0.22-2.67-.23-5.85l0-4.43a18.52,18.52,0,0,1,.25-3.41,6.46,6.46,0,0,1-.11-1.16,4.38,4.38,0,0,1,1.7-3.62,6.54,6.54,0,0,1,4.19-1.35,3.4,3.4,0,0,1,1.73.5A1.48,1.48,0,0,1,301.49,7a0.71,0.71,0,0,1-.31.61,1.86,1.86,0,0,1-1,.22,1.07,1.07,0,0,1-1-.45v0h-0.51V7.28a3.09,3.09,0,0,0-2.93,1.34,8.92,8.92,0,0,0-.72,4.23Z" style="fill:#047570"/><path d="M314.59,22.28L314.27,27v0.16a10,10,0,0,0-.23,2.22,6.52,6.52,0,0,1-.42,2.3,5.52,5.52,0,0,1-1.26,2,2.58,2.58,0,0,1-1.86.86,2.83,2.83,0,0,1-1.84-.69A5.4,5.4,0,0,1,307.28,32a14.23,14.23,0,0,1-1-2.57,26,26,0,0,1-.64-2.91q-0.23-1.42-.37-3-0.22-2.4-.21-3.73t0-2.28q0-.95,0-1.71V14q0-1.07.06-1.92t0.16-1.83a14.91,14.91,0,0,1,.3-1.73,9.31,9.31,0,0,1,.49-1.47,5,5,0,0,1,.72-1.21,2.69,2.69,0,0,1,2.08-1,4.37,4.37,0,0,1,2,.42,3.54,3.54,0,0,1,1.4,1.36q0.57,0.94,1,1.82a9.08,9.08,0,0,1,.67,2.47q0.24,1.58.39,2.56a26.68,26.68,0,0,1,.2,2.84q0.07,2.48.07,3.87v2.13ZM311.32,8.74a3.92,3.92,0,0,0-.92-1.46,1.63,1.63,0,0,0-1.09-.52,1.16,1.16,0,0,0-.89.38,3.05,3.05,0,0,0-.6,1.08,15.35,15.35,0,0,0-.43,1.49,13.62,13.62,0,0,0-.29,1.83q-0.1,1-.17,1.89t-0.09,1.84q0,1.68-.05,2.62v0.16a40.8,40.8,0,0,0,.38,5.34q0.38,2.86.79,4.69a12,12,0,0,0,1.09,3.1,1.92,1.92,0,0,0,1.54,1.27q0.74,0,1.25-1.39a15.07,15.07,0,0,0,.72-3.47q0.36-3.69.37-5.18t0-2.18q0-.69-0.05-2t-0.15-2.46q-0.11-1.15-.28-2.54a19.7,19.7,0,0,0-.45-2.48A17.86,17.86,0,0,0,311.32,8.74Z" style="fill:#047570"/><path d="M325.1,33.42a0.93,0.93,0,0,1-1.14-1V27.64a5.28,5.28,0,0,0-1.89-.61,21.34,21.34,0,0,0-2.43-.33,6.28,6.28,0,0,0-.62,1.88q-0.24,1.23-.51,2.47a6.45,6.45,0,0,1-.7,2q-1.45,0-1.63-.74,0.51-.72,1.64-7.39t1.87-10.43a52.27,52.27,0,0,1,1.58-6.33q0.85-2.56,1.63-2.57a1.9,1.9,0,0,1,1.19.33q0,1.32.72,7.14t0.72,7.52q0,1.71.39,5.67t0.39,6A1.09,1.09,0,0,1,325.1,33.42Zm-1.55-12.08q-0.33-3.28-.59-6.25T322.7,11.5a6.68,6.68,0,0,1,0-.71q-0.58.6-1.67,6.63t-1.17,7.64a10.18,10.18,0,0,0,2.57.42,6.88,6.88,0,0,0,1.47-.11Q323.87,24.63,323.55,21.35Z" style="fill:#047570"/><path d="M331.06,15.39L330.73,18v0.89a53.1,53.1,0,0,0,.19,5.69q0.19,1.39.39,2.49a9.49,9.49,0,0,0,.51,1.88,9.34,9.34,0,0,0,.75,1.46,2.7,2.7,0,0,0,2.4,1.37,3,3,0,0,0,1.57-.66,2.93,2.93,0,0,1,1.43-.66,1.57,1.57,0,0,1,1,.56,2.77,2.77,0,0,1-2.11,2.66,6.64,6.64,0,0,1-2.28.38,4.15,4.15,0,0,1-2.1-.5,4.62,4.62,0,0,1-1.45-1.28,7.74,7.74,0,0,1-1-2,19.06,19.06,0,0,1-.69-2.44Q329.18,26.58,329,25q-0.22-2.67-.23-5.85l0-4.43a18.52,18.52,0,0,1,.25-3.41,6.46,6.46,0,0,1-.11-1.16,4.38,4.38,0,0,1,1.7-3.62,6.54,6.54,0,0,1,4.19-1.35,3.4,3.4,0,0,1,1.73.5A1.48,1.48,0,0,1,337.45,7a0.71,0.71,0,0,1-.31.61,1.86,1.86,0,0,1-1,.22,1.07,1.07,0,0,1-1-.45v0H334.6V7.28a3.09,3.09,0,0,0-2.93,1.34,8.92,8.92,0,0,0-.72,4.23Z" style="fill:#047570"/><path d="M348,34q-0.94,0-.94-1.23,0-7-.33-13a10.46,10.46,0,0,0-1.86-.18,4,4,0,0,0-1.55.29q0,2.06.31,6.23t0.31,6.3a1.14,1.14,0,0,1-.22.67,0.67,0.67,0,0,1-.58.31q-1,0-1.48-6.34Q341,18.39,341,6.16a0.58,0.58,0,0,1,.63-0.67,1.72,1.72,0,0,1,.74.19,1.48,1.48,0,0,1,.56.41q-0.13,1.32-.13,2.78l0.25,7.61,0,1.39a5.88,5.88,0,0,0,.07,1l3.59-.27L346.57,6.42v-1a1.52,1.52,0,0,1,1.68,1.26,22,22,0,0,1,.13,3.13q0,2.51.35,10.65t0.35,12.19a1.53,1.53,0,0,1-.31.91A0.93,0.93,0,0,1,348,34Z" style="fill:#047570"/></svg>